<?xml version="1.0" encoding="UTF-8"?>
<svg xmlns="http://www.w3.org/2000/svg" width="80" height="80">

  <g id="topleft">
    <path fill="#29233d" fill-opacity="0.88" d="M 0 14 L 0 13 A 13 13 0 0 1 13 0 L 14 0 L 14 1 L 13 1 A 12 12 0 0 0 1 13 L 1 14 Z"/>
    <path fill="#141122" fill-opacity="0.86" d="M 14 1 L 13 1 A 12 12 0 0 0 1 13 L 1 14 L 14 14 Z"/>
  </g>
  <g id="topright" transform="translate(20,0)">
    <path fill="#29233d" fill-opacity="0.88" d="M 0 0 L 1 0 A 13 13 0 0 1 14 13 L 14 14 L 13 14 L 13 13 A 12 12 0 0 0 1 1 L 0 1 Z"/>
    <path fill="#141122" fill-opacity="0.86" d="M 0 1 L 1 1 A 12 12 0 0 1 13 13 L 13 14 L 0 14 Z"/>
  </g>
  <g id="bottomleft" transform="translate(0,20)">
    <path fill="#29233d" fill-opacity="0.88" d="M 0 0 L 0 1 A 13 13 0 0 0 13 14 L 14 14 L 14 13 L 13 13 A 12 12 0 0 1 1 1 L 1 0 Z"/>
    <path fill="#141122" fill-opacity="0.86" d="M 14 13 L 13 13 A 12 12 0 0 1 1 1 L 1 0 L 14 0 Z"/>
  </g>
  <g id="bottomright" transform="translate(20,20)">
    <path fill="#29233d" fill-opacity="0.88" d="M 0 14 L 1 14 A 13 13 0 0 0 14 1 L 14 0 L 13 0 L 13 1 A 12 12 0 0 1 1 13 L 0 13 Z"/>
    <path fill="#141122" fill-opacity="0.86" d="M 0 13 L 1 13 A 12 12 0 0 0 13 1 L 13 0 L 0 0 Z"/>
  </g>

  <g id="top" transform="translate(40,0)">
    <rect x="0" y="0" width="8" height="1"  fill="#29233d" fill-opacity="0.88"/>
    <rect x="0" y="1" width="8" height="13" fill="#141122" fill-opacity="0.86"/>
  </g>
  <g id="bottom" transform="translate(40,20)">
    <rect x="0" y="13" width="8" height="1"  fill="#29233d" fill-opacity="0.88"/>
    <rect x="0" y="0"  width="8" height="13" fill="#141122" fill-opacity="0.86"/>
  </g>
  <g id="left" transform="translate(0,40)">
    <rect x="0" y="0" width="1"  height="8" fill="#29233d" fill-opacity="0.88"/>
    <rect x="1" y="0" width="13" height="8" fill="#141122" fill-opacity="0.86"/>
  </g>
  <g id="right" transform="translate(20,40)">
    <rect x="13" y="0" width="1"  height="8" fill="#29233d" fill-opacity="0.88"/>
    <rect x="0"  y="0" width="13" height="8" fill="#141122" fill-opacity="0.86"/>
  </g>

  <rect id="center" x="40" y="40" width="8" height="8" fill="#141122" fill-opacity="0.86"/>

  <rect id="hint-top-margin"    x="60" y="0"  width="4" height="7" fill="none"/>
  <rect id="hint-bottom-margin" x="60" y="10" width="4" height="7" fill="none"/>
  <rect id="hint-left-margin"   x="60" y="20" width="9" height="4" fill="none"/>
  <rect id="hint-right-margin"  x="60" y="30" width="9" height="4" fill="none"/>
</svg>
